<svg width="32" height="32" viewBox="0 0 32 32" fill="none" xmlns="http://www.w3.org/2000/svg">
    <rect width="32" height="32" rx="4" fill="#17191E" />
    <g clip-path="url(#clip0_1_84)">
        <path
            d="M8.79246 24.1453C7.60237 23.0716 7.25496 20.8156 7.75077 19.1812C8.6105 20.2117 9.80173 20.5381 11.0356 20.7224C12.9404 21.0067 14.8111 20.9003 16.5806 20.0411C16.7831 19.9427 16.9701 19.8119 17.1913 19.6794C17.3573 20.1548 17.4006 20.6348 17.3426 21.1233C17.2016 22.313 16.6017 23.232 15.6476 23.9286C15.266 24.2073 14.8623 24.4564 14.4683 24.7191C13.2577 25.5267 12.9302 26.4735 13.3851 27.8508C13.3959 27.8846 13.4055 27.9181 13.43 28C12.8119 27.7269 12.3604 27.3293 12.0165 26.8067C11.6531 26.2552 11.4803 25.645 11.4711 24.9847C11.4666 24.6634 11.4666 24.3392 11.4228 24.0225C11.3159 23.2502 10.9486 22.9044 10.2566 22.8845C9.54642 22.8641 8.98464 23.2974 8.83567 23.9798C8.8243 24.0321 8.8078 24.0839 8.79131 24.1447L8.79246 24.1453Z"
            fill="white" />
        <path
            d="M8.79246 24.1453C7.60237 23.0716 7.25496 20.8156 7.75077 19.1812C8.6105 20.2117 9.80173 20.5381 11.0356 20.7224C12.9404 21.0067 14.8111 20.9003 16.5806 20.0411C16.7831 19.9427 16.9701 19.8119 17.1913 19.6794C17.3573 20.1548 17.4006 20.6348 17.3426 21.1233C17.2016 22.313 16.6017 23.232 15.6476 23.9286C15.266 24.2073 14.8623 24.4564 14.4683 24.7191C13.2577 25.5267 12.9302 26.4735 13.3851 27.8508C13.3959 27.8846 13.4055 27.9181 13.43 28C12.8119 27.7269 12.3604 27.3293 12.0165 26.8067C11.6531 26.2552 11.4803 25.645 11.4711 24.9847C11.4666 24.6634 11.4666 24.3392 11.4228 24.0225C11.3159 23.2502 10.9486 22.9044 10.2566 22.8845C9.54642 22.8641 8.98464 23.2974 8.83567 23.9798C8.8243 24.0321 8.8078 24.0839 8.79131 24.1447L8.79246 24.1453Z"
            fill="url(#paint0_linear_1_84)" />
        <path
            d="M2 18.9089C2 18.9089 5.52405 17.2145 9.05796 17.2145L11.7224 9.07599C11.8221 8.68241 12.1134 8.41493 12.4422 8.41493C12.771 8.41493 13.0623 8.68241 13.1621 9.07599L15.8265 17.2145C20.0119 17.2145 22.8844 18.9089 22.8844 18.9089C22.8844 18.9089 16.8985 2.81458 16.8869 2.78229C16.7151 2.30646 16.425 2 16.034 2H8.85105C8.46004 2 8.18171 2.30646 7.99822 2.78229C7.98527 2.81398 2 18.9089 2 18.9089Z"
            fill="white" />
    </g>
    <path
        d="M23.5006 16.5H23.5C22.1155 16.5 20.7622 16.9105 19.611 17.6797C18.4599 18.4489 17.5627 19.5421 17.0328 20.8212C16.503 22.1003 16.3644 23.5078 16.6345 24.8656C16.9046 26.2235 17.5713 27.4708 18.5503 28.4497C19.5292 29.4287 20.7765 30.0954 22.1344 30.3655C23.4922 30.6356 24.8997 30.497 26.1788 29.9672C27.4579 29.4373 28.5511 28.5401 29.3203 27.389C30.0895 26.2378 30.5 24.8845 30.5 23.5V23.4994C30.4979 21.6437 29.7598 19.8646 28.4476 18.5524C27.1354 17.2402 25.3563 16.5021 23.5006 16.5ZM27.0596 22.2778C26.9754 21.5459 26.8096 20.827 26.5661 20.1343C26.7569 20.3083 26.9332 20.4988 27.093 20.704C27.4584 21.1736 27.7275 21.7084 27.887 22.2778H27.0596ZM23.5005 27.5969C22.9509 26.7817 22.5728 25.7928 22.4081 24.7222H24.593C24.428 25.7923 24.0487 26.7813 23.5005 27.5969ZM24.5919 22.2778H22.4081C22.5728 21.2071 22.9509 20.218 23.5 19.4027C24.0492 20.218 24.4272 21.2071 24.5919 22.2778ZM19.9407 22.2778H19.1132C19.2729 21.7082 19.5423 21.1732 19.9082 20.7036C20.0682 20.4983 20.2448 20.3077 20.4359 20.1337C20.1917 20.8265 20.0254 21.5456 19.9407 22.2778ZM19.9407 24.7222C20.0254 25.4544 20.1917 26.1735 20.4359 26.8663C20.2448 26.6923 20.0682 26.5017 19.9082 26.2964C19.5423 25.8268 19.2729 25.2918 19.1132 24.7222H19.9407ZM27.0596 24.7222H27.887C27.7275 25.2916 27.4584 25.8264 27.093 26.296C26.9332 26.5012 26.7569 26.6917 26.5661 26.8657C26.8096 26.173 26.9754 25.4541 27.0596 24.7222Z"
        fill="white" stroke="#17191E" />
    <defs>
        <linearGradient id="paint0_linear_1_84" x1="7.53213" y1="28" x2="18.9679" y2="22.5254"
            gradientUnits="userSpaceOnUse">
            <stop stop-color="#D83333" />
            <stop offset="1" stop-color="#F041FF" />
        </linearGradient>
        <clipPath id="clip0_1_84">
            <rect width="20.9268" height="26" fill="white" transform="translate(2 2)" />
        </clipPath>
    </defs>
</svg>